<?xml version="1.0" encoding="UTF-8" standalone="no"?>
<!-- Created with Inkscape (http://www.inkscape.org/) -->

<svg
   xmlns:dc="http://purl.org/dc/elements/1.1/"
   xmlns:cc="http://creativecommons.org/ns#"
   xmlns:rdf="http://www.w3.org/1999/02/22-rdf-syntax-ns#"
   xmlns:svg="http://www.w3.org/2000/svg"
   xmlns="http://www.w3.org/2000/svg"
   xmlns:sodipodi="http://sodipodi.sourceforge.net/DTD/sodipodi-0.dtd"
   xmlns:inkscape="http://www.inkscape.org/namespaces/inkscape"
   width="59.15102mm"
   height="19.399mm"
   viewBox="0 0 59.15102 19.399"
   version="1.1"
   id="svg8"
   sodipodi:docname="logo.svg"
   inkscape:version="0.92.5 (2060ec1f9f, 2020-04-08)"
   inkscape:export-filename="/home/afabisch/Projekte/slither/doc/source/_static/logo.png"
   inkscape:export-xdpi="276"
   inkscape:export-ydpi="276">
  <defs
     id="defs2" />
  <sodipodi:namedview
     id="base"
     pagecolor="#ffffff"
     bordercolor="#666666"
     borderopacity="1.0"
     inkscape:pageopacity="0.0"
     inkscape:pageshadow="2"
     inkscape:zoom="2.8284271"
     inkscape:cx="114.84121"
     inkscape:cy="34.913116"
     inkscape:document-units="mm"
     inkscape:current-layer="layer1"
     showgrid="false"
     inkscape:window-width="1528"
     inkscape:window-height="836"
     inkscape:window-x="72"
     inkscape:window-y="27"
     inkscape:window-maximized="1"
     fit-margin-top="0"
     fit-margin-left="0"
     fit-margin-right="0"
     fit-margin-bottom="0" />
  <metadata
     id="metadata5">
    <rdf:RDF>
      <cc:Work
         rdf:about="">
        <dc:format>image/svg+xml</dc:format>
        <dc:type
           rdf:resource="http://purl.org/dc/dcmitype/StillImage" />
        <dc:title />
      </cc:Work>
    </rdf:RDF>
  </metadata>
  <g
     inkscape:label="Layer 1"
     inkscape:groupmode="layer"
     id="layer1"
     transform="translate(-65.086277,-65.545957)">
    <path
       style="fill:#000000;fill-opacity:1;stroke:none;stroke-width:0.26458332px;stroke-linecap:butt;stroke-linejoin:miter;stroke-opacity:1"
       d="m 73.529952,67.034946 c 0,0 -1.758426,-0.529291 -2.666014,-0.561265 -1.140322,-0.04017 -2.359457,-0.02003 -3.390982,0.467721 -0.892667,0.422093 -1.804532,1.095867 -2.174906,2.011203 -0.368986,0.911907 -0.218221,2.040083 0.163705,2.946647 0.246338,0.584725 0.764789,1.041668 1.286235,1.403165 0.787548,0.545975 1.759387,0.765356 2.666013,1.07576 1.058016,0.362236 2.382311,0.406864 3.227767,0.914894 1.239567,0.765813 1.431836,1.438574 1.356716,0.254326 -0.07702,-0.710154 -0.771932,-1.364343 -1.403975,-1.777258 -0.930743,-0.608056 -2.188092,-0.446801 -3.22728,-0.8419 -0.834232,-0.317174 -1.824209,-0.522081 -2.385381,-1.216076 -0.456549,-0.564609 -0.749614,-1.403502 -0.561266,-2.104747 0.217335,-0.809169 1.021826,-1.415151 1.777343,-1.777343 0.777816,-0.372883 1.713843,-0.363103 2.572469,-0.280633 0.68232,0.06554 1.479032,0.430754 1.964431,0.608038 0.430708,0.157309 1.09884,-0.779002 0.795125,-1.122532 z"
       id="path1097"
       inkscape:connector-curvature="0"
       sodipodi:nodetypes="saaaaaaccaaaaaass" />
    <text
       xml:space="preserve"
       style="font-style:normal;font-variant:normal;font-weight:normal;font-stretch:normal;font-size:10.58333302px;line-height:1.25;font-family:'CMU Bright';-inkscape-font-specification:'CMU Bright';letter-spacing:0px;word-spacing:0px;fill:#000000;fill-opacity:1;stroke:none;stroke-width:0.26458332"
       x="83.904305"
       y="80.984398"
       id="text1077"><tspan
         sodipodi:role="line"
         id="tspan1075"
         x="83.904305"
         y="80.984398"
         style="font-style:normal;font-variant:normal;font-weight:normal;font-stretch:normal;font-size:21.16666603px;font-family:'Latin Modern Sans';-inkscape-font-specification:'Latin Modern Sans';stroke-width:0.26458332">ither</tspan></text>
    <path
       style="fill:none;stroke:none;stroke-width:0.1;stroke-linecap:butt;stroke-linejoin:miter;stroke-miterlimit:4;stroke-dasharray:none;stroke-opacity:1"
       d="m 66.525648,74.764547 c 0.242752,1.716308 3.486605,7.4443 6.785237,5.288502 1.351245,-0.883097 1.196798,-3.395921 -0.0515,-4.739428 -1.74938,-1.882803 -2.216078,-3.596081 -1.61934,-5.366844 0.611273,-1.813892 2.733761,-3.381064 4.647861,-3.372253 2.002746,0.0092 4.244418,1.024844 4.830423,3.573053 0.903691,3.929645 -2.584991,7.925091 -1.052865,9.956196 0.578822,0.767332 1.585139,1.468985 2.513062,1.300158 3.08325,-0.560966 1.602377,-3.422918 5.369014,-5.107477 1.774171,-0.793465 4.26213,-0.464758 5.75608,0.744776 2.576726,2.086174 1.086799,3.888397 3.265657,5.50404 0.826688,0.612997 2.408454,0.02456 2.971984,-0.836609 0.518289,-0.79204 0.09307,-2.552916 0.868619,-4.042453 0.48308,-0.927817 1.12673,-1.485633 2.10909,-1.94106 0.36386,-0.168687 0.79418,-0.227262 1.00488,-0.63924 0.23726,-0.46392 0.82351,-0.809253 1.79103,-1.075085 0.31436,-0.08637 0.65499,-0.14131 0.98067,-0.0982 0.10426,0.0138 0.19218,0.08968 0.29494,0.112038 0.6652,0.144743 1.72072,-0.08979 2.03793,0.133634 0.21817,0.153669 0.24323,1.10197 0.34589,1.378297 0.10599,0.285283 -1.69979,0.916044 -1.79573,1.174314 -0.27476,0.300854 -0.22388,0.281847 -0.82213,0.540558 -0.43307,0.182544 -0.85568,0.223496 -1.29297,0.221875 -0.53506,-0.002 -1.095,-0.509177 -1.58,-0.283205 -1.26103,0.58754 -1.46423,1.511922 -1.54515,1.887589 -0.14162,0.657468 0.0841,2.24907 -0.28397,3.06525 -0.6523,1.446331 -1.57229,2.264287 -2.799166,2.631179 -1.32649,0.396683 -2.958582,0.0798 -4.091377,-0.71626 -0.745963,-0.524216 -1.432601,-1.281037 -1.640234,-2.133488 -0.344889,-1.415964 -0.311042,-1.964151 -1.257578,-2.939596 -0.866653,-0.89312 -2.633114,-0.930138 -3.633732,-0.242805 -1.605135,1.102581 -1.362044,3.128495 -3.412781,4.383312 -1.877343,1.148719 -3.643679,1.078725 -5.213436,0.336113 -0.936027,-0.44281 -2.251839,-1.616849 -2.615663,-2.855256 -0.698061,-2.376102 -0.247736,-2.644222 0.06682,-3.908817 0.460222,-1.850208 2.154615,-5.326919 0.503794,-6.970665 -1.094069,-1.089381 -2.786644,-0.789896 -3.594098,0.09683 -0.994055,1.091642 -0.616454,2.255522 -0.317381,2.898204 0.304281,0.653873 1.193344,1.537247 1.545151,2.430482 0.40681,1.032887 0.823519,2.184723 0.609708,3.274051 -0.237835,1.211725 -0.908807,2.545928 -2.004521,3.115362 -1.353531,0.703418 -2.996479,0.982449 -4.572447,-0.185284 -1.15682,-0.857162 -2.098144,-2.091645 -2.76076,-3.389446 -0.314455,-0.615892 -0.499834,-1.313871 -0.53454,-2.004523 -0.0203,-0.403941 0.137247,-1.595764 0.193531,-1.197818 z"
       id="path845"
       inkscape:connector-curvature="0"
       sodipodi:nodetypes="cssaasssssssssssaassccasssasssssssssssaaasaasc" />
    <path
       style="fill:#000000;fill-opacity:1;stroke:none;stroke-width:0.01687289;stroke-miterlimit:4;stroke-dasharray:none"
       d="m 402.14776,280.65246 c -0.41623,-0.0319 -1.72838,-0.0785 -1.76524,-0.10129 -0.0211,-0.013 -0.23553,-0.37467 -0.30092,-0.48627 -0.0896,-0.1529 -0.10516,-0.21143 -0.0631,-0.23741 0.0939,-0.0581 1.26479,-0.25319 1.80718,-0.28861 0.62119,-0.0406 1.44034,0.003 1.64531,0.0878 l 0.42608,0.23315 -0.4865,0.42653 c -0.4294,0.41024 -0.48341,0.4259 -1.26279,0.36613 z"
       id="path919"
       inkscape:connector-curvature="0"
       transform="scale(0.26458333)"
       sodipodi:nodetypes="cccccccccc" />
    <path
       style="fill:#000000;fill-opacity:1;stroke:none;stroke-width:0.01687289;stroke-miterlimit:4;stroke-dasharray:none"
       d="m 403.05321,291.68387 c 0.003,-0.49271 0.12988,-1.04432 0.62027,-1.53761 0.1893,-0.19042 0.53372,-0.53474 0.78377,-0.65576 0.49016,-0.2372 0.83658,-0.17352 1.35107,0.0695 l 0.59662,0.2016 -0.54081,0.64505 c -0.35489,0.35726 -0.4608,0.43353 -0.93589,0.67399 -0.50116,0.25366 -1.7881,0.81572 -1.84892,0.81572 -0.015,0 -0.0267,-0.0954 -0.0261,-0.21205 z"
       id="path921"
       inkscape:connector-curvature="0"
       transform="scale(0.26458333)"
       sodipodi:nodetypes="cccccccscc" />
    <path
       style="fill:#306998;fill-opacity:1;stroke:none;stroke-width:0.67491567;stroke-miterlimit:4;stroke-dasharray:none"
       d="m 279.3897,304.94642 -0.82706,-1.05272 0.53648,-0.38201 c 0.29507,-0.21011 0.90216,-0.89445 1.34909,-1.52077 2.16142,-3.02897 2.73535,-7.14586 1.61298,-11.57035 -0.43277,-1.70605 -1.38384,-3.98669 -2.05641,-4.93123 -0.20227,-0.28406 -0.36777,-0.55712 -0.36777,-0.60681 0,-0.0497 0.70313,-0.14246 1.5625,-0.20617 0.85938,-0.0637 1.77546,-0.1559 2.03573,-0.20487 0.4516,-0.085 0.50246,-0.0131 1.11255,1.57302 1.31119,3.40876 1.89636,5.90415 1.89636,8.08679 0,3.15157 -1.87051,7.75048 -4.14136,10.18208 -1.77481,1.90045 -1.72625,1.88912 -2.71309,0.63304 z"
       id="path1010"
       inkscape:connector-curvature="0"
       transform="scale(0.26458333)" />
    <path
       style="fill:#306998;fill-opacity:1;stroke:none;stroke-width:0.67491567;stroke-miterlimit:4;stroke-dasharray:none"
       d="m 277.49415,282.3483 c -2.73758,-3.23213 -4.49924,-6.27129 -5.18152,-8.939 -0.41173,-1.60984 -0.43923,-2.03986 -0.13098,-2.04767 0.12277,-0.003 1.06697,-0.12111 2.09822,-0.2622 2.56034,-0.35031 2.5,-0.35579 2.5,0.2268 0,0.80879 0.68703,3.04348 1.3527,4.39989 0.34175,0.69639 1.22911,2.10991 1.97189,3.14116 0.74279,1.03125 1.74089,2.44779 2.218,3.14787 l 0.86747,1.27286 -0.83896,0.10306 c -0.46143,0.0567 -1.48182,0.15358 -2.26753,0.21534 l -1.42857,0.11229 z"
       id="path1012"
       inkscape:connector-curvature="0"
       transform="scale(0.26458333)" />
    <path
       style="fill:#306998;fill-opacity:1;stroke:none;stroke-width:0.67491567;stroke-miterlimit:4;stroke-dasharray:none"
       d="m 271.84609,268.88606 c 0.22109,-2.65103 1.16535,-5.32634 2.6327,-7.45906 1.125,-1.63514 4.19223,-4.55527 4.97796,-4.73924 0.14356,-0.0336 0.49389,0.74658 0.96986,2.15991 l 0.74513,2.21254 -1.29153,1.3084 c -1.48584,1.50526 -2.62748,3.57809 -2.93995,5.33796 -0.37181,2.09407 -0.20793,1.93325 -2.21764,2.17615 -0.98012,0.11845 -2.05448,0.25665 -2.38747,0.3071 l -0.60544,0.0917 z"
       id="path1014"
       inkscape:connector-curvature="0"
       transform="scale(0.26458333)" />
    <path
       style="fill:#306998;fill-opacity:1;stroke:none;stroke-width:0.67491567;stroke-miterlimit:4;stroke-dasharray:none"
       d="m 281.52608,258.37621 c -0.37873,-1.15402 -0.72452,-2.19418 -0.76841,-2.31148 -0.10307,-0.27544 1.99884,-1.33561 3.63073,-1.83128 2.53481,-0.76993 5.82332,-0.77418 8.81078,-0.0114 2.61649,0.66807 2.54258,0.42411 0.96646,3.19016 -1.195,2.09719 -1.40061,2.36583 -1.7367,2.26904 -2.04526,-0.58904 -2.70236,-0.69459 -4.30979,-0.69229 -1.95435,0.003 -3.52746,0.33809 -4.93667,1.05219 -0.47026,0.2383 -0.8804,0.43328 -0.91141,0.43328 -0.031,0 -0.36625,-0.9442 -0.74499,-2.09822 z"
       id="path1016"
       inkscape:connector-curvature="0"
       transform="scale(0.26458333)" />
    <path
       style="fill:#306998;fill-opacity:1;stroke:none;stroke-width:0.67491567;stroke-miterlimit:4;stroke-dasharray:none"
       d="m 299.04564,274.37731 c 0.25649,-2.00858 0.16128,-5.83678 -0.17702,-7.11717 -0.68407,-2.58906 -2.43465,-5.17512 -4.30361,-6.3575 l -0.76671,-0.48506 1.41408,-2.46879 1.41407,-2.46879 0.74635,0.37325 c 1.25043,0.62534 3.25768,2.2549 4.21803,3.42434 2.1402,2.60618 3.34482,6.00297 3.52752,9.94684 0.0928,2.00352 -0.17257,5.82083 -0.42208,6.07143 -0.0489,0.0491 -1.3729,0.1179 -2.94223,0.15287 l -2.85334,0.0636 z"
       id="path1018"
       inkscape:connector-curvature="0"
       transform="scale(0.26458333)" />
    <path
       style="fill:#306998;fill-opacity:1;stroke:none;stroke-width:0.67491567;stroke-miterlimit:4;stroke-dasharray:none"
       d="m 298.06871,289.12825 c -1.39852,-0.40759 -2.59613,-0.79445 -2.66136,-0.85968 -0.0652,-0.0652 0.37373,-1.66479 0.97547,-3.55458 1.22917,-3.86027 1.6973,-5.47428 2.01383,-6.94332 0.20796,-0.96511 0.24411,-1.0118 0.86264,-1.1141 0.35507,-0.0587 1.67013,-0.10767 2.92236,-0.10875 1.70373,-10e-4 2.27665,0.0542 2.27622,0.22125 -0.001,0.48044 -1.29806,5.06605 -2.54051,8.98317 l -1.30588,4.1171 z"
       id="path1020"
       inkscape:connector-curvature="0"
       transform="scale(0.26458333)" />
    <path
       style="fill:#306998;fill-opacity:1;stroke:none;stroke-width:0.67491567;stroke-miterlimit:4;stroke-dasharray:none"
       d="m 294.88443,305.35606 c -0.59595,-1.34755 -1.43743,-4.65754 -1.69535,-6.66872 -0.25441,-1.98376 -0.10447,-3.03997 0.90826,-6.39809 0.39504,-1.30988 0.71824,-2.50374 0.71824,-2.65303 0,-0.14929 0.10045,-0.23408 0.22322,-0.18844 0.12277,0.0456 1.26785,0.38421 2.54464,0.75236 1.27679,0.36815 2.39017,0.7336 2.4742,0.8121 0.084,0.0785 -0.0137,0.85344 -0.21713,1.7221 -1.07051,4.57075 -0.85158,7.85614 0.69856,10.48343 0.21572,0.36562 0.36091,0.69607 0.32265,0.73433 -0.10741,0.10741 -5.27909,2.41518 -5.41237,2.41518 -0.0647,0 -0.31895,-0.45505 -0.56492,-1.01122 z"
       id="path1022"
       inkscape:connector-curvature="0"
       transform="scale(0.26458333)" />
    <path
       style="fill:#306998;fill-opacity:1;stroke:none;stroke-width:0.67491567;stroke-miterlimit:4;stroke-dasharray:none"
       d="m 307.86008,315.20705 c -3.1409,-0.71039 -5.78656,-1.95849 -7.97328,-3.76142 -1.53671,-1.26701 -3.89028,-3.83901 -3.68273,-4.02453 0.15887,-0.14201 5.34588,-2.48239 5.50175,-2.48239 0.0615,0 0.69565,0.54241 1.40921,1.20536 2.70361,2.51185 5.88194,3.81769 8.61795,3.54075 0.61261,-0.062 1.22034,-0.15361 1.35053,-0.20357 0.17897,-0.0687 0.35805,0.61034 0.73437,2.78452 0.27372,1.58145 0.44756,2.92547 0.3863,2.98673 -0.24956,0.24956 -5.19645,0.21412 -6.3441,-0.0455 z"
       id="path1024"
       inkscape:connector-curvature="0"
       transform="scale(0.26458333)" />
    <path
       style="fill:#306998;fill-opacity:1;stroke:none;stroke-width:0.67491567;stroke-miterlimit:4;stroke-dasharray:none"
       d="m 315.4429,314.70388 c -0.12431,-0.3935 -0.9977,-5.52587 -0.94623,-5.5604 0.0281,-0.0188 0.41293,-0.16813 0.85522,-0.33174 2.28895,-0.84676 4.80367,-3.02236 6.07084,-5.25218 l 0.625,-1.0998 2.17262,2.15945 2.17262,2.15946 -0.45893,0.7318 c -1.7609,2.80795 -3.48783,4.32286 -6.74346,5.91555 -2.55758,1.25121 -3.63956,1.62013 -3.74768,1.27786 z"
       id="path1026"
       inkscape:connector-curvature="0"
       transform="scale(0.26458333)" />
    <path
       style="fill:#306998;fill-opacity:1;stroke:none;stroke-width:0.67491567;stroke-miterlimit:4;stroke-dasharray:none"
       d="m 324.74327,303.34859 -2.1203,-2.12584 1.02914,-1.93666 c 1.77204,-3.33467 3.51738,-5.4118 5.99782,-7.13799 2.14182,-1.49054 6.01072,-3.10224 7.44694,-3.10224 0.3673,0 0.40265,0.0648 0.31661,0.58035 -0.0533,0.3192 -0.22469,1.54465 -0.38093,2.72322 -0.15625,1.17857 -0.29711,2.15424 -0.31303,2.16816 -0.0159,0.0139 -0.55126,0.26312 -1.18965,0.55378 -1.45467,0.66231 -3.14981,1.93661 -4.17948,3.14184 -1.02656,1.20161 -2.48959,3.55736 -3.49118,5.62149 -0.43762,0.90185 -0.84066,1.63973 -0.89565,1.63973 -0.055,0 -1.05412,-0.95663 -2.22029,-2.12584 z"
       id="path1028"
       inkscape:connector-curvature="0"
       transform="scale(0.26458333)" />
    <path
       style="fill:#306998;fill-opacity:1;stroke:none;stroke-width:0.67491567;stroke-miterlimit:4;stroke-dasharray:none"
       d="m 349.36916,296.44525 c -0.89355,-0.76124 -2.87959,-1.74823 -4.28572,-2.12985 -1.36819,-0.37132 -4.70805,-0.54158 -5.98214,-0.30496 -0.54018,0.10032 -1.00946,0.1555 -1.04285,0.12261 -0.12972,-0.12777 0.57481,-5.01195 0.75676,-5.24619 0.15437,-0.19874 0.63861,-0.22767 2.42697,-0.14497 3.4076,0.15756 5.92012,0.77558 8.71134,2.14276 0.81248,0.39796 1.55638,0.81893 1.65311,0.93549 0.11961,0.14411 -0.0584,0.97689 -0.55632,2.60275 -0.40271,1.31495 -0.785,2.44484 -0.84954,2.51085 -0.0645,0.066 -0.43876,-0.1538 -0.83161,-0.48849 z"
       id="path1030"
       inkscape:connector-curvature="0"
       transform="scale(0.26458333)" />
    <path
       style="fill:#306998;fill-opacity:1;stroke:none;stroke-width:0.67491567;stroke-miterlimit:4;stroke-dasharray:none"
       d="m 357.55849,313.12391 c -0.74049,-0.8088 -1.66889,-2.4563 -2.01365,-3.57332 -0.19177,-0.62135 -0.63822,-2.37527 -0.9921,-3.89759 -0.70973,-3.05309 -1.5381,-5.04151 -2.71702,-6.52189 l -0.71424,-0.89689 0.81675,-2.71918 c 0.44921,-1.49555 0.88457,-2.71918 0.96745,-2.71918 0.25056,0 2.25918,1.98765 3.06774,3.03571 1.49583,1.93889 2.05475,3.35591 3.58052,9.0775 0.27066,1.01495 0.83518,2.52896 1.2545,3.36446 l 0.7624,1.5191 -1.81513,1.87431 -1.81513,1.87432 z"
       id="path1032"
       inkscape:connector-curvature="0"
       transform="scale(0.26458333)" />
    <path
       style="fill:#306998;fill-opacity:1;stroke:none;stroke-width:0.67491567;stroke-miterlimit:4;stroke-dasharray:none"
       d="m 368.11916,318.92873 c -3.27331,-0.52209 -7.30757,-2.41174 -8.96926,-4.20119 l -0.39783,-0.42842 1.76823,-1.76159 1.76823,-1.76159 1.1296,1.131 c 0.62128,0.62205 1.59772,1.43401 2.16986,1.80435 1.94822,1.26105 4.64431,1.5206 7.27863,0.70071 l 1.03164,-0.32108 1.17295,1.7617 c 0.64512,0.96893 1.17295,1.83923 1.17295,1.93398 0,0.0948 -0.66295,0.38669 -1.47322,0.64875 -1.22877,0.3974 -1.8584,0.48495 -3.79464,0.52764 -1.27679,0.0282 -2.5625,0.0127 -2.85714,-0.0343 z"
       id="path1034"
       inkscape:connector-curvature="0"
       transform="scale(0.26458333)" />
    <path
       style="fill:#306998;fill-opacity:1;stroke:none;stroke-width:0.67491567;stroke-miterlimit:4;stroke-dasharray:none"
       d="m 376.20877,315.43606 -1.1961,-1.81671 0.87674,-0.50073 c 2.03726,-1.16353 3.7823,-3.26799 4.37157,-5.27198 0.28596,-0.9725 0.62603,-3.50185 0.62603,-4.65625 v -0.77555 l 1.83036,0.95703 1.83036,0.95703 -0.0437,1.59955 c -0.0575,2.10637 -0.27616,3.07268 -1.03926,4.59319 -1.28779,2.56602 -2.89922,4.57538 -4.78492,5.96652 -0.57554,0.42459 -1.09786,0.77032 -1.16072,0.7683 -0.0629,-0.002 -0.65253,-0.82121 -1.31038,-1.8204 z"
       id="path1036"
       inkscape:connector-curvature="0"
       transform="scale(0.26458333)" />
    <path
       style="fill:#306998;fill-opacity:1;stroke:none;stroke-width:0.67491567;stroke-miterlimit:4;stroke-dasharray:none"
       d="m 382.70338,302.04434 -1.66577,-0.8959 0.12071,-0.91736 c 0.47694,-3.62453 1.54143,-6.252 3.43341,-8.47465 0.83096,-0.97619 2.9804,-2.71868 3.33084,-2.70022 0.10812,0.006 0.56946,0.46034 1.0252,1.01031 l 0.82862,0.99995 -0.83539,0.66034 c -2.8027,2.21541 -4.30399,5.5755 -4.30399,9.63295 0,0.88806 -0.0603,1.60698 -0.13393,1.59757 -0.0737,-0.009 -0.88352,-0.42024 -1.7997,-0.91299 z"
       id="path1040"
       inkscape:connector-curvature="0"
       transform="scale(0.26458333)" />
    <path
       style="fill:#306998;fill-opacity:1;stroke:none;stroke-width:0.67491567;stroke-miterlimit:4;stroke-dasharray:none"
       d="m 389.97618,289.48988 c -0.41169,-0.51594 -0.74331,-1.00277 -0.73693,-1.08186 0.006,-0.0791 0.70604,-0.44305 1.55481,-0.80881 1.92048,-0.82761 2.64758,-1.31407 3.24732,-2.17258 0.49113,-0.70304 1.55585,-1.41619 3.80992,-2.55191 l 1.33928,-0.6748 2.67858,-0.0259 c 1.47321,-0.0142 4.06009,-0.0934 5.74862,-0.17597 l 3.07005,-0.15009 0.10548,0.4293 c 0.058,0.23612 0.17123,0.85146 0.25159,1.36742 l 0.14612,0.93813 -1.44665,0.44778 c -3.55466,1.10027 -5.47817,1.9373 -6.4982,2.82771 -2.05374,1.79279 -1.95904,1.76136 -5.16022,1.71232 -4.64691,-0.0712 -5.22154,-0.0319 -6.34259,0.43399 l -1.01864,0.42332 z"
       id="path1042"
       inkscape:connector-curvature="0"
       transform="scale(0.26458333)" />
    <path
       style="fill:#ffd43b;fill-opacity:1;stroke:none;stroke-width:0.47723743;stroke-miterlimit:4;stroke-dasharray:none"
       d="m 368.7187,320.71355 c -4.27268,-0.45722 -8.12869,-2.21888 -11.12345,-5.08189 -1.50885,-1.44247 -2.29319,-2.47657 -3.08927,-4.07299 -0.54402,-1.09095 -0.71563,-1.64051 -1.26175,-4.04061 -0.96861,-4.25687 -1.44613,-5.53334 -2.71612,-7.26047 -1.91216,-2.60047 -3.76933,-3.83299 -6.68441,-4.43618 -1.61836,-0.33487 -4.122,-0.27576 -5.68211,0.13417 -2.7172,0.71394 -5.01242,2.40673 -6.69552,4.93812 -0.34457,0.51824 -1.33977,2.33437 -2.21155,4.03584 -1.96621,3.83749 -2.73932,5.01766 -4.34971,6.63994 -3.73728,3.76488 -9.96863,6.07553 -15.15376,5.61917 -3.13353,-0.27579 -6.23568,-1.2677 -8.71257,-2.78584 -3.32782,-2.03969 -6.72074,-5.78728 -7.90161,-8.72759 -0.82443,-2.05281 -1.6153,-5.65388 -1.72232,-7.84226 -0.0894,-1.82902 0.0691,-2.87821 0.78795,-5.21465 0.29914,-0.97227 0.71855,-2.40379 0.93202,-3.18115 0.21348,-0.77736 0.84124,-2.82292 1.39503,-4.54569 1.8215,-5.66638 2.46012,-8.16114 2.85716,-11.16132 0.37564,-2.83854 0.0841,-5.84081 -0.75048,-7.72792 -1.06705,-2.41277 -3.26901,-4.27243 -5.95896,-5.03261 -1.37031,-0.38725 -3.584,-0.38453 -5.04362,0.006 -2.5547,0.68387 -4.43059,2.0269 -5.79264,4.14721 -1.72428,2.68418 -1.89349,5.63842 -0.51892,9.06 0.49286,1.22681 1.07615,2.16234 3.031,4.86135 2.46734,3.4066 3.09728,4.63948 4.42593,8.6621 0.74074,2.24269 1.06351,3.8539 1.1484,5.73258 0.0879,1.9454 -0.12685,3.31317 -0.87217,5.55514 -1.15226,3.46604 -2.98868,6.25228 -5.29516,8.03388 -1.45045,1.12036 -10.58877,4.94571 -12.92434,5.40523 -0.5464,0.1075 -1.65528,0.16971 -2.90419,0.16293 -1.77405,-0.01 -2.17422,-0.0523 -3.283,-0.35038 -4.70769,-1.26544 -12.67128,-11.06484 -13.91188,-12.41283 -1.2406,-1.34799 -1.72721,-2.08658 -3.13308,-3.56859 2.51239,0.61383 6.1527,2.92667 7.41555,4.17129 1.34596,1.33179 3.25684,2.62326 4.53058,3.57018 1.90569,1.41674 4.01184,2.42935 5.85436,2.81469 1.28845,0.26947 3.31618,0.23299 4.54777,-0.0818 1.98299,-0.50686 9.91238,-4.20328 10.91543,-5.47223 2.12549,-2.68894 2.6232,-7.18613 1.26457,-11.42617 -0.68951,-2.15184 -1.6247,-3.72936 -3.40514,-5.74396 -3.00134,-3.39608 -4.76289,-6.19692 -5.73138,-9.11283 -0.69184,-2.08298 -0.86243,-3.10223 -0.86308,-5.15686 -6.3e-4,-2.06187 0.25792,-3.59695 0.92924,-5.51649 2.05135,-5.86551 8.42913,-11.10619 14.88783,-12.23348 1.58953,-0.27744 4.54732,-0.18865 6.48642,0.19471 5.74234,1.13527 10.20337,4.35669 12.50764,9.0321 2.02953,4.11795 2.47285,8.87709 1.38207,14.83662 -0.54038,2.95238 -1.05456,4.8004 -3.19698,11.49048 -1.06162,3.31509 -1.59857,5.28243 -1.98161,7.26047 -0.30139,1.55638 -0.29881,4.25109 0.005,5.36644 0.87434,3.20848 4.50696,6.57341 8.10927,7.51169 2.59711,0.67646 6.40296,-0.44811 8.64069,-2.55321 1.28515,-1.20898 2.03821,-2.36076 3.70424,-5.66552 1.78924,-3.54915 2.55742,-4.68742 4.42817,-6.56158 2.83567,-2.84082 6.38689,-4.75877 10.42258,-5.62905 1.14715,-0.24738 1.70018,-0.28634 4.10374,-0.28911 2.38812,-0.003 2.97686,0.0368 4.19561,0.28161 4.83926,0.97217 8.28239,2.77888 11.28185,5.91989 2.46431,2.58061 3.43305,4.50166 4.65375,9.22856 0.74159,2.87167 1.12052,4.03856 1.65249,5.08877 0.97843,1.9316 3.13607,4.20234 4.75179,5.00087 0.83208,0.41124 1.0585,0.46496 2.1889,0.5194 2.83496,0.13651 5.65337,-0.97992 7.73903,-3.06559 1.42676,-1.42675 1.83338,-2.76138 2.17384,-7.13508 0.39185,-5.03374 0.94598,-7.33475 2.36075,-9.80267 1.91722,-3.34441 4.48914,-5.45096 8.75557,-7.17133 1.5017,-0.60552 2.02321,-0.99246 2.6503,-1.96636 0.52202,-0.81074 1.52091,-1.8467 2.05749,-2.13387 0.27526,-0.14732 0.27628,-0.1434 0.27628,1.0623 v 1.21016 l -1.23112,1.22789 c -1.26455,1.26123 -1.33356,1.30532 -3.97748,2.54117 -0.46877,0.21912 -0.85231,0.47478 -0.85231,0.56814 0,0.0934 0.30196,0.55924 0.671,1.03527 0.77005,0.99327 0.79873,0.99988 2.17005,0.49986 0.70497,-0.25706 1.12031,-0.32295 2.05187,-0.32555 l 1.16799,-0.003 v 0.96174 c 0,0.93835 -0.007,0.95968 -0.2841,0.87682 -0.15626,-0.0467 -0.63659,-0.11772 -1.06741,-0.15781 -0.7176,-0.0668 -0.86492,-0.0341 -1.75655,0.38932 -1.2874,0.61138 -2.35575,1.38762 -3.2745,2.37916 -0.94779,1.02289 -1.50486,1.95717 -1.9577,3.28333 -0.49591,1.45228 -0.62483,2.61358 -0.62494,5.62953 0,4.69937 -0.28158,6.35489 -1.45901,8.5839 -2.31312,4.37904 -5.21921,7.0067 -9.26338,8.37585 -2.02837,0.68671 -4.70674,0.97456 -6.89205,0.74072 z m 5.29015,-2.01731 c 1.10175,-0.28179 2.22286,-0.7413 2.22286,-0.9111 0,-0.19179 -0.22577,-0.57865 -1.29781,-2.22382 -0.77266,-1.18574 -1.06,-1.53394 -1.21454,-1.47182 -0.11134,0.0448 -0.73531,0.21811 -1.38661,0.38521 -2.62361,0.67313 -5.37255,0.24606 -7.12886,-1.10752 -0.28919,-0.22288 -1.07016,-0.90181 -1.7355,-1.50873 l -1.20969,-1.10349 -1.79937,1.80258 -1.79936,1.80258 0.79935,0.72645 c 1.79588,1.63208 5.47983,3.32929 8.3755,3.85862 1.05299,0.19249 5.08344,0.03 6.17403,-0.24896 z m 4.06772,-1.7235 c 2.22867,-1.50281 4.17478,-3.82818 5.48209,-6.55049 0.72586,-1.51147 0.90697,-2.37394 0.92667,-4.41269 l 0.017,-1.76103 -1.75431,-0.92218 c -0.96487,-0.5072 -1.79471,-0.92219 -1.8441,-0.92219 -0.0494,0 -0.1233,0.69606 -0.16425,1.5468 -0.0885,1.83991 -0.3795,3.55748 -0.76485,4.51517 -0.66267,1.64698 -2.23961,3.43719 -3.95617,4.49123 -0.54258,0.33317 -1.00546,0.61881 -1.02864,0.63477 -0.0366,0.0252 1.67482,2.64214 2.23903,3.42371 0.25554,0.354 0.25886,0.35383 0.84752,-0.0431 z m -63.93767,-1.64959 c 0.0521,-0.0299 0.0947,-0.24488 0.0947,-0.47764 0,-0.51196 -0.59999,-4.0702 -0.80672,-4.78421 l -0.14774,-0.51027 -2.07972,-0.0114 c -1.9032,-0.0104 -2.15474,-0.0389 -2.9636,-0.33555 -1.96297,-0.71989 -3.3266,-1.56116 -5.21029,-3.21442 -0.66434,-0.58306 -1.2795,-1.06012 -1.36703,-1.06012 -0.14943,0 -3.5636,1.50699 -4.8816,2.15469 -0.32988,0.16211 -0.59978,0.3492 -0.59978,0.41576 0,0.52336 3.35746,3.86348 4.92711,4.90168 2.74949,1.81856 5.63806,2.84649 8.45741,3.00964 1.48888,0.0862 4.37058,0.0307 4.57726,-0.0882 z m 2.5225,-0.719 c 1.36507,-0.51815 3.39613,-1.52043 4.64327,-2.29135 1.56509,-0.96746 3.34881,-2.73205 4.39906,-4.35189 l 0.77716,-1.19864 -2.17638,-2.17905 c -1.19702,-1.19848 -2.20541,-2.17784 -2.24088,-2.17636 -0.0355,0.001 -0.34859,0.49681 -0.69583,1.10073 -1.18494,2.06081 -3.6688,4.25662 -5.824,5.1486 -0.47754,0.19764 -0.92091,0.40463 -0.98526,0.45997 -0.0714,0.0614 -0.0555,0.50766 0.041,1.1453 0.23113,1.52872 0.76834,4.41137 0.84531,4.53592 0.10533,0.17042 0.36877,0.12858 1.2166,-0.19323 z m 43.14793,-2.9118 1.82024,-1.82349 -0.58132,-1.23854 c -0.8698,-1.85313 -1.03086,-2.31181 -1.93231,-5.50297 -1.25805,-4.45351 -1.94118,-5.96667 -3.53979,-7.84073 -0.95907,-1.12433 -2.40212,-2.47891 -2.6408,-2.47891 -0.17013,0 -0.75895,1.65806 -1.57784,4.44301 l -0.2854,0.97062 0.6465,0.86029 c 1.39127,1.85136 1.89754,3.11529 2.99991,7.48941 0.6424,2.54901 0.92877,3.45664 1.37446,4.35628 0.52603,1.06183 1.58862,2.58852 1.80163,2.58852 0.052,0 0.91359,-0.82057 1.91472,-1.82349 z m -91.54179,-0.93405 c 1.5211,-0.20945 10.86326,-3.85603 10.86326,-4.16764 0,-0.0797 -1.22788,-1.79466 -1.42879,-1.99557 -0.0256,-0.0257 -0.53664,0.183 -1.13556,0.46366 -1.88882,0.88513 -8.54298,3.492 -11.07683,3.49686 -2.43535,0.005 -2.93361,-0.0849 -4.915,-0.88389 -0.5878,-0.23702 -1.1123,-0.43095 -1.16557,-0.43095 -0.0533,0 -0.18414,0.29399 -0.29084,0.65329 -0.17981,0.60549 -0.17789,0.67111 0.0263,0.89669 0.53192,0.58777 3.89142,1.92574 5.31737,2.11772 0.80009,0.10772 2.38776,0.0451 3.80569,-0.15017 z m 29.48795,-5.32429 c 0.97227,-0.43362 2.06607,-0.92266 2.43068,-1.08678 0.3646,-0.16411 0.66291,-0.37752 0.66291,-0.47424 0,-0.0967 -0.2264,-0.62303 -0.50311,-1.16958 -1.25938,-2.4875 -1.42186,-5.20883 -0.56285,-9.42662 0.16959,-0.83268 0.30834,-1.70306 0.30834,-1.93419 v -0.42023 l -1.42052,-0.43913 c -2.58936,-0.80045 -3.7537,-1.12976 -3.80221,-1.0754 -0.1315,0.14735 -1.6104,5.73544 -1.73522,6.5566 -0.0815,0.53617 -0.10948,1.39996 -0.0645,1.99106 0.18776,2.46684 1.53274,7.4667 2.23675,8.31498 0.15795,0.19032 0.11278,0.20574 2.44971,-0.83647 z m -16.14123,-0.53603 c 1.15189,-1.19201 1.89061,-2.21085 2.60082,-3.58703 1.12714,-2.18407 1.73727,-4.05268 2.00505,-6.14074 0.18394,-1.43429 0.005,-3.06237 -0.58454,-5.32982 -0.49908,-1.9183 -1.61796,-4.96172 -1.93113,-5.25281 -0.19757,-0.18364 -0.38424,-0.18532 -2.04828,-0.0184 -1.007,0.10101 -1.88157,0.23124 -1.94349,0.28939 -0.0645,0.0606 0.055,0.3669 0.2796,0.71692 0.50471,0.78653 1.16471,2.23125 1.59478,3.49093 0.58883,1.72468 0.83285,3.06692 0.90976,5.00399 0.0848,2.13685 -0.10545,3.5177 -0.71808,5.21079 -0.61755,1.70668 -1.99666,3.73024 -3.01058,4.41742 l -0.29949,0.20298 0.78111,0.95592 c 1.0349,1.26649 1.17735,1.26893 2.36447,0.0405 z m 46.19887,-0.86349 c 0.94609,-1.88646 2.17816,-3.93816 3.09777,-5.15858 1.19573,-1.58686 3.06929,-3.05741 4.98874,-3.91567 l 0.88793,-0.39702 0.3407,-2.48769 c 0.44558,-3.25356 0.45734,-3.05589 -0.18181,-3.05589 -0.70807,0 -2.89708,0.74767 -4.64746,1.58737 -4.07794,1.95628 -6.41639,4.35946 -9.02203,9.27177 l -0.70326,1.32583 2.16668,2.1712 c 1.19168,1.19416 2.21478,2.14148 2.27356,2.10515 0.0588,-0.0363 0.41841,-0.68724 0.79918,-1.44647 z m -69.63699,3.36905 c 0.21911,-0.57631 0.0416,-0.84019 -1.17464,-1.74601 -0.64431,-0.47986 -2.20887,-1.89157 -3.4768,-3.13714 -1.26794,-1.24556 -2.34019,-2.22981 -2.38278,-2.18721 -0.15726,0.15726 1.43058,2.19531 3.55435,4.56213 1.08177,1.20557 2.90616,2.85054 3.16147,2.85054 0.10354,0 0.24682,-0.15404 0.3184,-0.34231 z m 126.50747,-5.9464 c 0.0346,-4.09059 1.44563,-7.27964 4.26439,-9.63806 l 0.91013,-0.7615 -0.85322,-0.98687 c -0.46926,-0.54278 -0.93742,-1.00309 -1.04035,-1.02291 -0.56666,-0.10913 -3.30189,2.37451 -4.35024,3.95007 -1.18114,1.77516 -1.87113,3.59534 -2.33099,6.14919 -0.34669,1.92536 -0.33952,2.02972 0.15698,2.28443 0.22571,0.11579 1.007,0.52104 1.7362,0.90056 1.55178,0.80764 1.49256,0.84202 1.5071,-0.87491 z m -33.93513,-5.94113 c 0.25579,-0.76036 0.58694,-1.89138 0.73591,-2.51338 0.31979,-1.3353 0.43609,-1.16192 -1.40258,-2.09092 -2.90335,-1.46693 -6.45528,-2.26875 -10.05775,-2.27044 -1.24047,-6.4e-4 -1.32268,0.0946 -1.59021,1.84134 -0.32873,2.14628 -0.50181,3.58974 -0.43808,3.65347 0.032,0.032 0.6606,-0.009 1.39686,-0.0914 1.54025,-0.17212 4.42168,5e-4 5.71376,0.34239 1.01509,0.26856 3.09289,1.28546 4.09905,2.00612 0.44883,0.32148 0.87499,0.56668 0.94702,0.54489 0.072,-0.0218 0.34024,-0.66173 0.59602,-1.42209 z m -49.02063,-8.99018 c 1.17582,-3.77166 2.25238,-7.44825 2.59213,-8.85248 0.18979,-0.78444 0.19758,-0.94729 0.05,-1.04594 -0.0976,-0.0652 -1.33014,-0.10104 -2.79054,-0.0811 -2.21699,0.0303 -2.64709,0.0671 -2.82129,0.2415 -0.11304,0.11314 -0.39488,0.93705 -0.62631,1.8309 -0.23143,0.89386 -0.87548,3.10254 -1.43123,4.90819 -1.29988,4.22344 -1.42449,4.70936 -1.23755,4.82602 0.16234,0.1013 4.86655,1.53057 5.07792,1.54281 0.0736,0.004 0.60771,-1.51221 1.18686,-3.36994 z m -20.8111,-2.9369 c 2.05988,-0.2007 2.28286,-0.24831 2.19806,-0.4693 -0.0407,-0.10602 -0.92127,-1.39571 -1.95686,-2.86597 -1.03559,-1.47025 -2.13492,-3.09949 -2.44296,-3.62053 -0.91317,-1.54454 -1.7671,-3.96712 -1.88733,-5.35429 -0.0286,-0.33005 -0.0877,-0.38405 -0.45881,-0.41954 -0.23428,-0.0224 -1.11501,0.0497 -1.95717,0.16023 -2.65428,0.34836 -2.47822,0.2989 -2.47822,0.69616 0,0.56445 0.56995,2.65225 1.00276,3.67328 0.88829,2.09548 2.48388,4.55561 4.60121,7.09427 1.17551,1.40943 0.96588,1.34084 3.37932,1.10569 z m 23.80019,-8.24405 c 0.342,-0.342 0.55411,-5.75022 0.30378,-7.74519 -0.52942,-4.21905 -2.23697,-7.59068 -5.06311,-9.99734 -0.9009,-0.76718 -2.60182,-1.9014 -3.16108,-2.1079 -0.15571,-0.0575 -0.52372,0.49045 -1.62348,2.41724 -1.20491,2.111 -1.39292,2.51212 -1.23082,2.62606 2.04876,1.44014 3.02472,2.54912 4.00768,4.5539 1.0002,2.03992 1.06577,2.41232 1.06711,6.06092 6.3e-4,1.7362 -0.0414,3.43434 -0.0935,3.77365 l -0.0946,0.61693 2.90475,-0.0599 c 1.59761,-0.0329 2.94009,-0.0952 2.98329,-0.13841 z m -30.6369,-5.32713 c 2.64699,-0.32932 2.51225,-0.23124 2.8887,-2.10262 0.42477,-2.11157 1.41287,-3.87993 3.21944,-5.76169 l 1.01147,-1.05358 -0.15607,-0.58354 c -0.36743,-1.37376 -1.34768,-3.75712 -1.56192,-3.79761 -0.35407,-0.0669 -1.32983,0.69173 -2.88547,2.2434 -1.65579,1.65155 -2.40487,2.64765 -3.20002,4.25521 -0.9017,1.82297 -1.44458,3.85655 -1.65937,6.21582 l -0.0849,0.93222 0.42488,-0.0756 c 0.23368,-0.0416 1.13514,-0.164 2.00324,-0.27199 z m 9.53331,-10.08492 c 1.5375,-0.67673 2.76227,-0.87656 4.96631,-0.8103 1.43683,0.0432 2.10289,0.12409 2.96996,0.36075 l 1.11775,0.30507 0.33435,-0.40375 c 0.39181,-0.47313 1.97065,-3.20832 2.19493,-3.80249 0.28754,-0.76179 -0.17543,-1.04006 -2.54806,-1.53155 -2.59058,-0.53663 -5.61369,-0.54254 -7.67986,-0.015 -1.86211,0.47544 -4.19643,1.58881 -4.19643,2.00151 0,0.11855 0.31888,1.1723 0.70864,2.34168 0.57848,1.73561 0.74662,2.11443 0.91545,2.06241 0.11374,-0.035 0.66138,-0.26379 1.21696,-0.50833 z"
       id="path1046"
       inkscape:connector-curvature="0"
       transform="scale(0.26458333)"
       sodipodi:nodetypes="csssccccsssscccccccsccccccccccczcccccsscsccccsssccsscccccsccccccccccscscsccccscccccccccccsccccccccccccccccscccsccccssccccscscccccsccccccccccccccccscccccsccsccccssccccccsccscccscccccsccsccccccccccccscccscsccccccccsscccccccscsccccccscccccccccccccccccsccccccsccsccscccccccccccccccccsccccccccccccssccc" />
    <path
       style="fill:#ffd43b;fill-opacity:1;stroke:none;stroke-width:0.47723743;stroke-miterlimit:4;stroke-dasharray:none"
       d="m 396.54283,292.06835 c -1.16065,-0.41419 -1.29528,-0.49345 -1.23284,-0.72592 0.0385,-0.14353 0.0709,-0.58378 0.0718,-0.97833 l 0.002,-0.71737 2.80949,-0.0402 c 3.22122,-0.0462 3.14557,-0.0235 4.76665,-1.4253 1.11463,-0.96383 2.83957,-1.78604 5.80838,-2.76859 2.3118,-0.76511 2.45993,-0.83285 2.42428,-1.10855 -0.0209,-0.16151 -0.12766,-0.7987 -0.2373,-1.41599 l -0.19934,-1.12235 -1.15165,0.0786 c -0.63342,0.0432 -3.25404,0.14064 -5.82362,0.21644 l -4.67195,0.13781 -1.38896,0.70485 c -0.76393,0.38767 -1.60204,0.83865 -1.86247,1.00219 l -0.47351,0.29734 v -1.06454 c 0,-0.5855 -0.0348,-1.15513 -0.0772,-1.26585 -0.0596,-0.15536 0.16373,-0.31341 0.97859,-0.69246 1.45093,-0.67494 3.55412,-1.35474 3.6161,-1.1688 0.16597,0.49791 0.48748,0.6613 1.53365,0.77937 1.3083,0.14765 1.59047,0.0864 2.17657,-0.47242 0.3166,-0.30187 0.5154,-0.40622 0.63134,-0.33141 0.0931,0.0601 1.76291,0.13761 3.71072,0.17233 3.02656,0.054 3.58829,0.0938 3.86339,0.27432 0.39159,0.25689 0.62233,1.02756 0.98511,3.29017 0.14174,0.88403 0.26483,1.65111 0.27353,1.70464 0.0752,0.46227 -0.60675,0.9256 -3.63844,2.47216 -1.16649,0.59506 -2.30975,1.22245 -2.54058,1.39419 l -0.41969,0.31226 -0.55743,-0.24658 c -0.71598,-0.31671 -1.36909,-0.16482 -2.08936,0.4859 -0.62923,0.56846 -0.77739,0.83432 -0.86431,1.55089 l -0.0689,0.56821 -0.88388,0.23259 c -0.55706,0.14658 -1.49085,0.25158 -2.52539,0.28398 -1.62975,0.051 -1.65082,0.0481 -2.94443,-0.41357 z"
       id="path1048"
       inkscape:connector-curvature="0"
       transform="scale(0.26458333)" />
    <path
       style="fill:#ffd43b;fill-opacity:1;stroke:none;stroke-width:0.05965468;stroke-miterlimit:4;stroke-dasharray:none"
       d="m 394.98175,284.42628 0.31948,-0.31976 -1.3e-4,-0.99423 c -1.4e-4,-1.19038 -0.0115,-1.33295 -0.10686,-1.34655 -0.0875,-0.0125 -0.44955,0.22569 -0.74762,0.49172 -0.5592,0.49911 -1.07996,1.09922 -1.50207,1.73096 -0.17822,0.26673 -0.31076,0.44721 -0.32093,0.43704 -0.004,-0.004 0.0246,-0.0519 0.0643,-0.1057 0.0814,-0.11055 0.17836,-0.27106 0.32415,-0.53652 0.77271,-1.40694 2.41882,-2.5039 5.13924,-3.42478 0.62549,-0.21173 1.7245,-0.53208 1.74433,-0.50846 0.005,0.006 0.022,0.0465 0.0376,0.0899 0.0453,0.12606 0.14408,0.30732 0.22795,0.41827 0.0427,0.0564 0.0751,0.10508 0.0721,0.10813 -0.0124,0.0126 -0.12196,-0.0856 -0.17277,-0.15483 -0.0553,-0.0753 -0.15039,-0.26177 -0.15041,-0.29491 -5e-5,-0.0705 -0.27378,-0.0417 -0.70603,0.0743 -1.30386,0.34994 -3.54747,1.28578 -3.84261,1.60281 -0.0658,0.0707 -0.0749,0.11102 -0.0515,0.22708 0.0421,0.20839 0.0587,0.54996 0.0683,1.40761 l 0.01,0.87888 0.25253,-0.15886 c 0.39704,-0.24974 1.2456,-0.72158 1.26422,-0.70297 0.004,0.004 -0.0758,0.0526 -0.17823,0.10707 -0.71797,0.38144 -1.53153,0.88912 -1.92181,1.19927 -0.0652,0.0518 -0.12398,0.0942 -0.13054,0.0942 -0.007,0 0.13183,-0.14389 0.30754,-0.31976 z"
       id="path1050"
       inkscape:connector-curvature="0"
       transform="scale(0.26458333)" />
    <path
       style="fill:#ffd43b;fill-opacity:1;stroke:none;stroke-width:0.05965468;stroke-miterlimit:4;stroke-dasharray:none"
       d="m 398.3697,292.60672 c -0.46204,-0.0411 -0.97779,-0.17005 -1.6035,-0.40102 -0.15032,-0.0555 -0.48046,-0.17978 -0.73364,-0.2762 -0.76318,-0.29064 -1.1087,-0.40474 -1.48106,-0.48905 -0.21059,-0.0477 -0.214,-0.049 -0.10259,-0.0402 0.14241,0.0112 0.3734,0.0504 0.55895,0.0947 0.1304,0.0311 0.16304,0.0341 0.1959,0.018 0.085,-0.0417 0.0876,-0.07 0.0939,-1.01168 l 0.006,-0.86605 -0.83367,0.0104 c -0.89065,0.0111 -1.14584,0.024 -1.4556,0.0733 -0.3331,0.053 -0.50365,0.10192 -1.12217,0.3216 -0.37169,0.13201 -0.68831,0.2301 -0.74062,0.22945 -0.032,-4e-4 0.67172,-0.29418 0.93002,-0.38826 0.70157,-0.2555 1.35273,-0.32248 3.18041,-0.32716 1.01139,-0.003 3.21851,0.02 3.20571,0.0328 -0.004,0.004 -0.40053,0.0137 -0.88066,0.0211 -0.48013,0.007 -1.17202,0.0181 -1.53753,0.0238 l -0.66458,0.0104 -0.009,0.59401 c -0.009,0.59255 -0.0251,0.85342 -0.0655,1.07314 -0.0229,0.12467 -0.014,0.18965 0.0334,0.24197 0.0415,0.0459 0.1892,0.1312 0.33761,0.19504 0.42242,0.18174 1.52529,0.56941 1.86155,0.65436 0.36407,0.092 0.48583,0.10276 1.13642,0.10067 1.12188,-0.004 2.06801,-0.0689 2.83316,-0.1956 0.26887,-0.0445 1.35527,-0.31374 1.38191,-0.34246 0.006,-0.007 0.0304,-0.17227 0.0535,-0.36759 0.023,-0.19533 0.0439,-0.36205 0.0463,-0.3705 0.002,-0.008 10e-4,0.14241 -0.003,0.33525 -0.005,0.23931 -0.002,0.35718 0.01,0.37129 0.0137,0.0165 -0.0427,0.0404 -0.2781,0.11805 -0.94955,0.31315 -1.86946,0.47832 -3.00216,0.53905 -0.41966,0.0225 -1.18312,0.0324 -1.35094,0.0174 z"
       id="path1052"
       inkscape:connector-curvature="0"
       transform="scale(0.26458333)" />
    <path
       style="fill:#ffd43b;fill-opacity:1;stroke:none;stroke-width:0.01476378;stroke-miterlimit:4;stroke-dasharray:none"
       d="m 395.37794,283.24262 c -0.008,-0.71518 -0.0246,-1.07955 -0.0597,-1.28028 -0.0135,-0.0772 -0.0151,-0.0953 -0.005,-0.0605 0.0255,0.0917 0.049,0.37968 0.0628,0.77148 0.004,0.12118 0.0102,0.82031 0.007,0.82031 -10e-4,0 -0.003,-0.11294 -0.005,-0.25097 z"
       id="path1054"
       inkscape:connector-curvature="0"
       transform="scale(0.26458333)" />
    <path
       style="fill:none;stroke:#000000;stroke-width:0.26458332px;stroke-linecap:butt;stroke-linejoin:miter;stroke-opacity:1"
       d="m 109.14566,74.77201 1.87088,-0.304019"
       id="path1099"
       inkscape:connector-curvature="0" />
    <path
       style="fill:none;stroke:#fe0000;stroke-width:0.26458332px;stroke-linecap:butt;stroke-linejoin:miter;stroke-opacity:1"
       d="m 111.01654,74.467991 -1.87088,0.304019"
       id="path1101"
       inkscape:connector-curvature="0" />
    <path
       style="fill:none;stroke:#fe0000;stroke-width:0.26458332px;stroke-linecap:butt;stroke-linejoin:miter;stroke-opacity:1"
       d="m 111.01654,74.467991 1.05238,-0.444336"
       id="path1103"
       inkscape:connector-curvature="0" />
    <path
       style="fill:none;stroke:#fe0000;stroke-width:0.26458332px;stroke-linecap:butt;stroke-linejoin:miter;stroke-opacity:1"
       d="m 111.01654,74.467991 1.21608,0.257247"
       id="path1105"
       inkscape:connector-curvature="0" />
    <path
       style="fill:#306998;fill-opacity:1;stroke:none;stroke-width:0.47244096;stroke-miterlimit:4;stroke-dasharray:none;stroke-opacity:1"
       d="m 18.177886,63.101855 c -1.751965,-0.455265 -4.462004,-1.573664 -4.917893,-2.029552 -0.244863,-0.244863 -0.250001,-0.29502 -0.08604,-0.839814 0.09591,-0.318669 0.198001,-0.603027 0.22688,-0.631906 0.02888,-0.02888 0.569746,0.147251 1.201927,0.3914 1.794962,0.693215 2.49733,0.832431 4.247367,0.841868 1.211315,0.0065 1.832297,-0.05374 2.673684,-0.259496 2.220736,-0.543073 5.987643,-1.865791 8.796088,-3.088673 0.704804,-0.306893 1.309034,-0.557987 1.342735,-0.557987 0.0337,0 0.374779,0.434722 0.757953,0.966048 l 0.696678,0.966049 -0.543657,0.276294 c -1.569498,0.797641 -8.369955,3.372063 -9.858937,3.732258 -0.781763,0.189114 -4.058589,0.357774 -4.536783,0.233511 z"
       id="path1109"
       inkscape:connector-curvature="0"
       transform="matrix(0.26458333,0,0,0.26458333,65.086277,65.545957)" />
    <path
       style="fill:#306998;fill-opacity:1;stroke:none;stroke-width:0.47244096;stroke-miterlimit:4;stroke-dasharray:none;stroke-opacity:1"
       d="M 9.7505704,58.083945 C 7.5822966,55.919371 5.2367678,53.139647 5.4221502,52.954264 c 0.032181,-0.03218 0.9466363,0.786827 2.0321232,1.820018 1.0854869,1.033191 2.5237337,2.338676 3.1961036,2.901079 1.463794,1.224387 1.682973,1.511373 1.48542,1.944955 -0.07703,0.169058 -0.229663,0.307379 -0.339188,0.307379 -0.109526,0 -1.030243,-0.829687 -2.0460386,-1.84375 z"
       id="path1111"
       inkscape:connector-curvature="0"
       transform="matrix(0.26458333,0,0,0.26458333,65.086277,65.545957)" />
  </g>
</svg>
