<?xml version="1.0" encoding="UTF-8"?>
<!-- Generator: Adobe Illustrator 14.0.0, SVG Export Plug-In . SVG Version: 6.00 Build 43363)  -->
<!DOCTYPE svg PUBLIC "-//W3C//DTD SVG 1.1//EN" "http://www.w3.org/Graphics/SVG/1.1/DTD/svg11.dtd">
<svg version="1.1" id="Layer_1" xmlns="http://www.w3.org/2000/svg" xmlns:xlink="http://www.w3.org/1999/xlink" x="0px" y="0px" width="300px" height="300px" viewBox="0 0 300 300" enable-background="new 0 0 300 300" xml:space="preserve">
<path d="M247.85,45.987c0.828-2.632,3.908-1.208,5.609-0.37c-0.227,2.82-0.681,5.616-1.321,8.372  c-2.695,11.65-4.404,23.504-7.397,35.088c-8.617,40.418-17.102,80.866-25.632,121.303c26.964,0.001,53.928,0,80.893,0.001v6.007  c-27.4,0-54.801-0.037-82.199,0.02c-0.469,2.311-0.969,4.615-1.438,6.929c4.587,4.722,5.032,11.468,6.02,17.62  c1.616,11.612,0.843,24.131-4.798,34.614c-3.506,5.964-11.215,6.486-17.305,5.169c-4.897-1.364-9.695-4.011-12.646-8.252  c-2.467-5.221-2.082-11.293-0.701-16.759c2.98-10.975,8.521-21.252,15.972-29.832c1.854-2.418,4.685-3.621,7.524-4.45  c0.396-1.688,0.792-3.377,1.189-5.062c-70.079-0.011-140.157,0-210.235-0.005c-0.001-2.002-0.001-4.003-0.001-6  c13.55-0.036,27.104,0.068,40.653-0.039c2.234,0.111,3.83-1.648,5.465-2.89c11.522-9.843,21.82-21.201,29.994-33.986  c5.855-8.739,10.275-18.675,18.185-25.855c5.377-5.098,14.192-6.71,20.789-3.169c4.078,2.344,3.819,7.727,2.576,11.635  c-3.493,11.456-11.619,20.728-20.059,28.915c-10.097,9.467-20.945,18.281-32.792,25.469c29.086-0.186,58.175-0.022,87.262-0.081  c1.8-3.564,6.096-7.913,3.187-11.952c-8.107-8.899-18.679-15.43-25.635-25.41c-2.386-3.659-3.773-8.452-1.712-12.584  c2.78-5.801,10.015-7.82,15.977-6.88c4,2.771,8.387,4.96,12.218,7.983c7.503,5.408,13.978,12.263,19.054,19.981  c2.521,4.719,6.268,9.711,4.88,15.377c-1.358,6.041-6.275,10.644-11.487,13.605c14.27-0.263,28.545-0.069,42.815-0.1  c4.474-20.468,8.728-40.983,13.027-61.487c-7.811,0.185-15.43-1.785-22.991-3.465c-14.58-3.605-28.146-10.997-39.521-20.752  c-6.84-5.413-13.008-11.598-19.314-17.605c-6.114-5.799-12.286-12.071-15.097-20.215c-2.115-5.138-2.953-11.772,0.763-16.378  c4.526-4.358,11.89-2.083,15.614,2.203c14.066,15.215,22.46,35.03,38.298,48.731c9.014,8.167,20.451,12.839,31.61,17.263  c3.914,1.79,8.299,1.18,12.421,2.029c2.403-11.31,4.616-22.665,7.263-33.919c-3.438,5.625-7.927,10.808-13.55,14.329  c-6.759,4.285-15.184,4.007-22.813,3.055c-8.018-1.516-16.444-4.165-22.011-10.477c-2.394-2.712-4.232-6.893-2.076-10.277  c2.454-3.864,7.342-5.506,11.701-5.834c7.981,2.188,15.615,5.614,23.682,7.5c8.506,0.487,14.526-6.92,19.423-12.885  c8.002-9.457,9.664-22.126,15.011-32.96C246.26,55.09,246.072,50.242,247.85,45.987z"/>
<circle cx="180" cy="56.333" r="22"/>
</svg>