<?xml version="1.0" encoding="UTF-8"?>
<!-- Generator: Adobe Illustrator 14.0.0, SVG Export Plug-In . SVG Version: 6.00 Build 43363)  -->
<!DOCTYPE svg PUBLIC "-//W3C//DTD SVG 1.1//EN" "http://www.w3.org/Graphics/SVG/1.1/DTD/svg11.dtd">
<svg version="1.1" id="Layer_1" xmlns="http://www.w3.org/2000/svg" xmlns:xlink="http://www.w3.org/1999/xlink" x="0px" y="0px" width="300px" height="300px" viewBox="0 0 300 300" enable-background="new 0 0 300 300" xml:space="preserve">
<path d="M181.98,48.05c7.868,6.012,15.846,11.884,23.666,17.962c0.262,8.722,5.734,17.345,14.105,20.317  c8.567,3.553,19.314,0.918,25.142-6.331c3.176-3.567,4.695-8.286,5.229-12.96c-0.021-7.987-4.566-15.864-11.696-19.574  c-5.386-2.824-11.625-2.794-17.521-3.491c-15.745-0.766-31.462-2.344-47.218-2.688C176.082,43.967,179.156,45.866,181.98,48.05z"/>
<path d="M211.157,100.839c-5.167-6.75-7.217-15.192-11.663-22.354c-2.157-3.317-5.613-6.085-9.67-6.399  c-3.746,0.183-8.039,1.342-9.99,4.851c-2.028,3.681-0.582,8.022,0.867,11.638c4.676,10.468,12.201,19.449,20.637,27.101  c12.688,10.066,28.818,14.313,44.483,17.083c8.119,0.759,16.323,1.439,24.476,0.855c-6.5-2.969-14.16-1.999-20.547-5.393  C235.451,121.55,220.62,113.939,211.157,100.839z"/>
<path d="M136.18,132.044c-0.663-8.349-1.193-16.944-4.656-24.698c-2.048-4.925-6.382-8.762-11.68-9.754  c-2.811,1.435-5.887,2.856-7.604,5.65c-3.832,5.621-3.308,12.85-2.322,19.248c4.105,19.137,8.157,38.309,13.671,57.104  c2.452,8.638,4.052,17.493,6.403,26.158c3.203,9.946,5.948,20.034,9.085,30.002c0.949,2.781,1.695,5.734,3.609,8.05  c0.34-3.597,0.224-7.214,0.179-10.817C141.263,199.3,139.608,165.601,136.18,132.044z"/>
<path d="M189.828,124.168c-3.703-8.069-11.826-12.565-18.985-17.141c-8.399-5.538-18.773-8.492-28.799-7.095  c-3.463,2.926-6.01,7.499-5.269,12.139c1.182,4.644,5.487,7.375,9.249,9.827c8.02,4.613,16.934,7.273,25.539,10.539  c-7.568,15.495-15.015,31.054-22.906,46.391c-1.129,2.126-1.592,4.511-2.043,6.854c2.475-0.589,4.188-2.489,5.94-4.178  c7.105-7.204,13.867-14.743,21.102-21.82c5.477-5.897,11.549-11.604,14.846-19.094C190.65,135.466,192.379,129.482,189.828,124.168z  "/>
<path d="M100.553,147.357c-9.681-8.518-23.452-11.832-36.028-9.314c-7.753,1.848-15.273,4.944-21.702,9.712  c-10.348,7.037-17.641,17.635-23.081,28.729c-6.248,15.217-8.059,32.968-1.825,48.487c4.57,13.097,15.673,23.944,29.194,27.431  c12.507,3.006,26.185,0.73,36.986-6.284c12.226-6.873,21.133-18.45,27.133-30.921c5.738-13.868,8.02-29.685,3.667-44.27  C112.645,161.837,107.453,153.636,100.553,147.357z"/>
<path d="M282.146,173.879c-2.23-9.664-7.672-18.443-15.105-24.966c-7.511-6.371-17.346-9.691-27.16-9.691  c-2.796,0-5.592,0.27-8.331,0.814c-12.631,2.895-24.483,9.772-32.749,19.812c-4.978,5.217-8.352,11.664-11.747,17.956  c-6.657,15.593-8.474,33.974-1.862,49.895c4.694,12.784,15.675,23.295,28.945,26.712c3.605,0.863,7.306,1.288,11.006,1.288  c9.143,0,18.284-2.595,25.971-7.589c12.213-6.87,21.11-18.438,27.11-30.896C283.824,203.642,286.187,188.207,282.146,173.879z   M272.746,214.765c-4.355,8.998-12.138,21.12-24.572,28.115l-0.168,0.095l-0.16,0.104c-6.566,4.268-14.629,6.619-22.699,6.619  c-3.247,0-6.464-0.374-9.563-1.112c-11.132-2.885-20.616-11.677-24.759-22.956l-0.043-0.117l-0.048-0.114  c-5.448-13.117-4.813-29.502,1.735-44.991l0.317-0.589c3.165-5.875,6.155-11.426,10.354-15.826l0.152-0.159l0.141-0.17  c7.196-8.742,17.624-15.047,29.37-17.757c2.306-0.454,4.685-0.684,7.078-0.684c8.584,0,17.053,3.002,23.244,8.236  c6.596,5.803,11.275,13.532,13.175,21.77l0.033,0.142l0.039,0.139C280.568,190.382,276.735,205.037,272.746,214.765z"/>
</svg>