<?xml version="1.0" encoding="UTF-8"?>
<!-- Generator: Adobe Illustrator 14.0.0, SVG Export Plug-In . SVG Version: 6.00 Build 43363)  -->
<!DOCTYPE svg PUBLIC "-//W3C//DTD SVG 1.1//EN" "http://www.w3.org/Graphics/SVG/1.1/DTD/svg11.dtd">
<svg version="1.1" id="Layer_1" xmlns="http://www.w3.org/2000/svg" xmlns:xlink="http://www.w3.org/1999/xlink" x="0px" y="0px" width="300px" height="300px" viewBox="0 0 300 300" enable-background="new 0 0 300 300" xml:space="preserve">
<path d="M300,225.381v-6c-9.964-0.039-19.928,0.082-29.89-0.07c-8.115-10.576-16.029-21.457-25.891-30.504  c-6.438-5.453-14.223-11.277-23.178-10c-13.316,0.927-23.808,10.768-30.954,21.295c-9.226-12.051-18.439-24.113-27.804-36.056  c17.198,2.079,34.41,4.134,51.719,5.012c12.004,0.621,23.981,1.607,35.967,2.477c5.927,0.139,12.258,0.95,17.765-1.79  c4.014-1.78,6.211-6.302,6.086-10.548c-2.939-7.852-12.548-9.002-19.791-8.152c-29.922,0.46-59.578,4.976-89.414,6.855  c-6.41,0.803-13.174,0.01-19.233,2.631c3.371,1.602,8.033,1.319,10.171,4.84c10.301,13.56,20.804,26.97,31.11,40.53  c-2.294,4.645-4.648,9.262-6.95,13.904c-16.243-0.08-32.507,0.227-48.737-0.141c-3.378-3.168-5.641-7.328-8.656-10.827  c-8.394-10.286-16.924-21.327-29.17-27.213c-5.753-2.997-12.578-2.109-18.557-0.329c-10.445,3.514-18.27,11.952-24.212,20.914  c-10.057-12.738-19.998-25.568-30.078-38.287c12.552,1.379,25.078,2.983,37.666,4.006c12.954,1.129,25.963,1.453,38.919,2.568  c9.053,0.521,18.12,1.735,27.199,1.006c4.339-0.342,8.767-2.676,10.63-6.76c0.986-2.316,1.871-5.302,0.103-7.48  c-2.725-4.298-7.929-6.107-12.8-6.338c-33.153,0.062-66.033,4.994-99.083,7.054c-6.189,0.749-12.732-0.021-18.559,2.579  c2.355,0.829,4.753,1.533,7.173,2.147c11.703,15.229,23.687,30.246,35.488,45.4c-2.047,3.958-3.724,8.133-6.148,11.882  c-13.608,0.617-27.262,0.327-40.89,0.396v5.8c20.334,0.108,40.687-0.214,61.009,0.153c2.448,2.147,4.147,5.001,6.213,7.498  c17.33,22.043,34.559,44.17,51.945,66.168h4.964c0.387-0.411,1.162-1.23,1.55-1.642c-18.748-24.139-37.691-48.138-56.554-72.19  c15.296-0.114,30.605,0.347,45.889-0.352c28.982-0.001,57.969,0.062,86.947-0.132c19.015,24.803,38.138,49.521,57.163,74.314h4.961  c0.422-0.402,1.264-1.209,1.685-1.611c-18.666-24.272-37.326-48.556-56.05-72.785C239.818,225.796,269.906,225.403,300,225.381z   M64.883,220.082c-2.427-1.827-3.954-4.559-5.881-6.861c6.604-6.652,13.954-12.92,22.85-16.229  c9.045,5.363,14.851,14.469,20.28,23.184C89.716,220.113,77.293,220.321,64.883,220.082z M190.658,219.611  c1.284-1.172,2.555-2.359,3.817-3.554c0.964,1.188,1.929,2.38,2.914,3.556C195.145,219.609,192.9,219.611,190.658,219.611z   M205.375,219.475c-2.594-2.387-4.406-5.461-6.549-8.229c6.551-5.984,13.378-12.367,22.012-15.057  c9.44,5.065,14.928,14.835,20.719,23.453C229.498,219.482,217.422,219.839,205.375,219.475z"/>
<circle cx="241.463" cy="122.343" r="21.875"/>
<circle cx="103.46" cy="122.346" r="21.875"/>
</svg>