<?xml version="1.0" encoding="UTF-8"?>
<!-- Generator: Adobe Illustrator 14.0.0, SVG Export Plug-In . SVG Version: 6.00 Build 43363)  -->
<!DOCTYPE svg PUBLIC "-//W3C//DTD SVG 1.1//EN" "http://www.w3.org/Graphics/SVG/1.1/DTD/svg11.dtd">
<svg version="1.1" id="Layer_1" xmlns="http://www.w3.org/2000/svg" xmlns:xlink="http://www.w3.org/1999/xlink" x="0px" y="0px" width="300px" height="300px" viewBox="0 0 300 300" enable-background="new 0 0 300 300" xml:space="preserve">
<path d="M93.454,82.452c10.295,13.967,20.592,27.969,32.192,40.894c4.491,4.976,11.638,7.827,18.172,5.468  c4.804-2.087,6.966-8.526,4.28-13.054c-1.849-3.034-4.439-5.519-6.833-8.113c-6.393-6.25-12.791-12.502-19.504-18.409  C102.364,71.66,83.355,53.653,63.939,36.093c-1.416-1.302-3.077-2.287-4.797-3.128c0.856,3.301,3.135,5.954,4.849,8.838  C73.498,55.577,83.36,69.101,93.454,82.452z"/>
<path d="M69.584,198.589c16.201-8.631,32.331-18.409,44.338-32.556c2.57-3.246,5.075-6.738,6.234-10.759  c0.847-8.735-4.859-16.107-9.779-22.701c-10.63-13.398-22.323-27.756-39.335-32.935c-4.326,1.999-8.97,4.704-10.552,9.509  c-1.079,4.394,0.282,9.056,2.51,12.878c4.241,7.441,10.441,13.565,16.975,19.009c5.573,4.749,12.252,7.918,18.064,12.338  c-12.795,12.834-24.356,26.795-36.237,40.461c-4.708,5.428-10.454,9.883-14.86,15.584l1.534,0.092  C55.736,206.34,62.52,202.169,69.584,198.589z"/>
<path d="M281.233,243.632c-14.198,0.252-23.479,13.633-37.115,15.98c-9.32,2.207-18.082-2.708-26.174-6.631  c-9.367-4.533-19.272-9.597-30.005-8.665c-16.502,1.014-29.296,14.564-45.954,14.867c-12.084,0.197-21.285-9.524-33.006-10.996  c-11.907-1.707-23.493,2.806-34.385,7.05c0.043-12.433,0.026-24.865,0.022-37.297c0.236-2.22-1.182-4.887-3.73-4.582  c-23.628,0.045-47.257,0.012-70.885,0.022v6.003c22.793,0,45.585-0.002,68.378,0c0.046,13.179-0.077,26.358,0.047,39.533  c-0.195,1.687,1.226,2.738,2.286,3.789c11.693-2.75,22.608-9.385,34.966-8.753c12.628,1.049,22.442,11.626,35.358,11.271  c11.089,0.575,21.116-4.923,30.785-9.593c8.111-3.892,17.509-6.955,26.46-4.176c12.362,3.533,22.897,11.9,35.615,14.442  c6.436,0.912,13.11,0.01,19.069-2.599c9.122-3.456,16.233-11.03,25.854-13.327c1.24-0.369,2.662-0.629,3.441-1.797  C282.946,246.541,281.832,245.063,281.233,243.632z"/>
<circle cx="176.968" cy="129.344" r="21.875"/>
</svg>