<?xml version="1.0" encoding="UTF-8" standalone="no"?>
<!-- Generator: Adobe Illustrator 14.0.0, SVG Export Plug-In . SVG Version: 6.00 Build 43363)  -->
<svg xmlns:dc="http://purl.org/dc/elements/1.1/" xmlns:cc="http://creativecommons.org/ns#" xmlns:rdf="http://www.w3.org/1999/02/22-rdf-syntax-ns#" xmlns:svg="http://www.w3.org/2000/svg" xmlns="http://www.w3.org/2000/svg" xmlns:sodipodi="http://sodipodi.sourceforge.net/DTD/sodipodi-0.dtd" xmlns:inkscape="http://www.inkscape.org/namespaces/inkscape" version="1.1" id="Layer_1" x="0px" y="0px" width="300px" height="300px" viewBox="0 0 300 300" enable-background="new 0 0 300 300" xml:space="preserve" inkscape:version="0.91 r13725" sodipodi:docname="Triathlon_pictogram.svg"><metadata id="metadata25"><rdf:RDF><cc:Work rdf:about=""><dc:format>image/svg+xml</dc:format><dc:type rdf:resource="http://purl.org/dc/dcmitype/StillImage"/></cc:Work></rdf:RDF></metadata><defs id="defs23"/><sodipodi:namedview pagecolor="#ffffff" bordercolor="#666666" borderopacity="1" objecttolerance="10" gridtolerance="10" guidetolerance="10" inkscape:pageopacity="0" inkscape:pageshadow="2" inkscape:window-width="1737" inkscape:window-height="984" id="namedview21" showgrid="false" inkscape:zoom="1" inkscape:cx="58.569789" inkscape:cy="244.27932" inkscape:window-x="0" inkscape:window-y="0" inkscape:window-maximized="0" inkscape:current-layer="Layer_1"/><path d="M194.772,109.174c9.465,11.278,23.641,17.268,37.633,20.687c12.262,3.597,25.213,4.34,37.911,3.739  c-6.511-2.93-14.149-1.991-20.534-5.366c-14.307-6.669-29.15-14.28-38.615-27.386c-5.178-6.751-7.225-15.204-11.677-22.371  c-1.884-2.891-4.67-5.269-8.056-6.153c-5.844-1.215-13.635,2.881-12.558,9.688C180.797,92.564,187.799,101.36,194.772,109.174z" id="path3"/><path d="M136.745,137.531c-1.222-10.114-0.965-20.69-5.213-30.169c-2.049-4.934-6.386-8.786-11.696-9.768  c-4.593,1.847-8.616,5.376-9.798,10.35c-2.56,10.502,1.614,20.946,3.517,31.189c4.167,21.425,11.056,42.179,15.605,63.514  c3.086,10.543,6.297,21.057,9.431,31.59c1.122,3.277,1.899,6.8,4.076,9.588c0.656-7.892-0.086-15.805-0.432-23.691  C140.95,192.564,139.33,165.01,136.745,137.531z" id="path5"/><path d="M189.819,124.145c-3.709-8.048-11.813-12.542-18.963-17.109c-8.396-5.547-18.757-8.477-28.786-7.122  c-3.484,2.926-6.046,7.522-5.291,12.177c1.114,4.418,5.126,7.095,8.696,9.465c8.13,4.846,17.276,7.534,26.073,10.866  c-7.531,15.528-15.024,31.08-22.903,46.439c-1.131,2.129-1.626,4.51-1.982,6.875c1.642-0.653,3.203-1.489,4.407-2.813  c7.572-7.379,14.508-15.383,22.104-22.739c5.477-5.898,11.56-11.559,15.038-18.951C190.528,135.938,192.477,129.695,189.819,124.145  z" id="path7"/><path d="M89.511,140.417c-5.4-2.007-11.154-3.213-16.911-3.213c-2.711,0-5.424,0.267-8.099,0.845  c-16.695,3.646-31.277,14.834-39.829,29.521c-11.432,17.823-14.327,41.65-5.256,61.083c5.196,11.463,15.564,20.661,27.831,23.789  c3.569,0.842,7.228,1.257,10.889,1.257c9.139,0,18.279-2.588,25.965-7.581c12.228-6.876,21.135-18.459,27.137-30.933  c5.581-13.561,7.955-28.978,3.912-43.291C111.962,158.264,102.486,145.979,89.511,140.417z M105.757,212.74  c-4.359,9.01-12.147,21.146-24.596,28.146l-0.167,0.096l-0.161,0.104c-6.564,4.263-14.625,6.612-22.697,6.612  c-3.208,0-6.39-0.364-9.457-1.084c-10.146-2.605-19.262-10.433-23.798-20.439l-0.014-0.03l-0.014-0.029  c-7.831-16.776-5.92-38.485,4.869-55.307l0.07-0.107l0.065-0.111c7.867-13.51,21.297-23.484,35.909-26.675  c2.183-0.471,4.483-0.71,6.834-0.71c4.726,0,9.665,0.937,14.683,2.783c10.746,4.665,19.179,15.099,22.026,27.272l0.031,0.134  l0.037,0.132C113.566,188.352,109.74,203.005,105.757,212.74z" id="path9"/><path d="M281.645,172.02c-2.312-8.727-7.418-16.545-14.039-22.617c-7.574-6.685-17.661-10.182-27.725-10.182  c-2.806,0-5.609,0.272-8.354,0.824c-7.757,1.847-15.278,4.947-21.711,9.715c-10.173,6.901-17.35,17.274-22.799,28.12  c-5.337,12.406-7.282,26.265-4.979,39.615c2.46,10.976,7.497,21.857,16.558,28.912c7.381,6.364,16.97,9.308,26.603,9.308  c5.717,0,11.45-1.037,16.746-3.013C272.754,240.794,291.116,203.704,281.645,172.02z M271.516,217.123  c-6.85,13.898-18.403,24.818-31.703,29.968c-4.61,1.716-9.664,2.623-14.616,2.623c-8.754,0-16.812-2.79-22.685-7.853l-0.113-0.099  l-0.118-0.092c-8.632-6.721-12.57-17.461-14.355-25.344c-2.014-11.846-0.447-24.258,4.533-35.916  c5.998-11.894,12.779-20.296,20.725-25.688l0.104-0.069l0.101-0.074c5.316-3.939,11.851-6.857,19.421-8.673  c2.304-0.455,4.683-0.685,7.074-0.685c8.825,0,17.465,3.151,23.71,8.644c6.084,5.591,10.319,12.398,12.252,19.69l0.024,0.092  l0.025,0.091C279.975,187.39,278.379,203.203,271.516,217.123z" id="path11"/><circle cx="58.376999" cy="23.375999" id="circle13" r="12.5"/><circle cx="35.437" cy="61.375999" id="circle15" r="12.5"/><circle cx="82.436996" cy="61.278999" id="circle17" r="12.5"/><circle cx="227.911" cy="66.37" r="21.875" id="circle19"/></svg>