<?xml version="1.0" encoding="UTF-8"?>
<!-- Generator: Adobe Illustrator 14.0.0, SVG Export Plug-In . SVG Version: 6.00 Build 43363)  -->
<!DOCTYPE svg PUBLIC "-//W3C//DTD SVG 1.1//EN" "http://www.w3.org/Graphics/SVG/1.1/DTD/svg11.dtd">
<svg version="1.1" id="Layer_1" xmlns="http://www.w3.org/2000/svg" xmlns:xlink="http://www.w3.org/1999/xlink" x="0px" y="0px" width="300px" height="300px" viewBox="0 0 300 300" enable-background="new 0 0 300 300" xml:space="preserve">
<path d="M280.748,187.758c-6.96,0.16-13.922-0.027-20.88,0.109c-0.113,11.848-0.018,23.695-0.05,35.543  c-1.277-0.039-2.549-0.082-3.818-0.128c-5.857-7.917-11.771-15.789-17.655-23.686c-6.562-8.738-13.844-16.9-20.508-25.556  c-5.906-7.736-11.472-15.725-17.515-23.354c-5.36-6.234-10.93-12.685-18.409-16.415c-2.146,0.202-4.505-0.045-6.431,1.08  c-1.402,2.642-2.004,5.696-2.091,8.666c0.33,8.165,5.363,15.111,10.953,20.668c21.585,19.615,43.866,38.484,64.877,58.723  c-23.433,0.338-46.885,0.234-70.325,0.143c-0.164-9.869-0.787-19.72-1.325-29.572c-0.481-5.01-0.599-10.532-3.78-14.702  c-1.419-2.148-4.403-2.49-6.615-1.48c-4.625,3.873-7.097,9.539-9.414,14.957c-5.46,9.479-2.383,20.773-2.57,31.092  c-2.1-0.023-4.196-0.055-6.29-0.143c0.07-4.897-0.243-9.787-0.218-14.682c-0.085-8.458,1.009-17.662-3.526-25.267  c-3.449-6.258-5.256-14.552-12.06-18.074c-6.998-1.299-8.42,7.229-9.1,12.276c-0.644,15.263-0.446,30.571,0.167,45.833  c-23.666,0.777-47.366,0.16-71.047,0.463c5.582-4.765,10.574-10.183,16.091-15.027c16.096-14.236,32.198-28.468,48.308-42.688  c5.543-5.444,11.245-11.583,12.547-19.553c0.95-3.975-0.62-7.859-1.627-11.643c-2.834-0.904-6.334-1.917-8.896,0.158  c-11.452,7.038-19.064,18.549-26.984,29.094c-9.153,12.467-19.402,24.069-28.896,36.271c-5.826,7.866-11.702,15.696-17.701,23.433  c-2.593,0.097-5.188,0.089-7.782,0.085c-0.039-12.245,0.081-24.494-0.051-36.735c-0.184-0.193-0.553-0.579-0.738-0.772  c-6.866,0.094-13.808-0.515-20.626,0.364c0.142,26.857-0.001,53.719,0.072,80.578c7.11,0.064,14.221,0.065,21.331,0  c0.036-12.545,0.003-25.091,0.017-37.636c28.712-0.133,57.443,0.328,86.138-0.354c1.011,10.99,1.473,22.264,5.377,32.707  c2.039,3.355,6.29,6.646,10.322,4.588c4.304-1.601,5.645-6.332,6.828-10.3c2.074-8.837,2.351-17.975,2.377-27.013  c2.011,0.006,4.024,0.01,6.038,0.014c0.444,11.033,0.698,22.524,5.269,32.778c1.199,3.485,5.056,5.414,8.587,5.144  c3.73-0.73,6.262-4.233,7.067-7.767c2.56-9.887,2.756-20.188,2.704-30.342c26.979,0.011,53.953-0.005,80.926-0.257  c0.019,13.146-0.019,26.289,0.02,39.436c7.108,0.063,14.22,0.065,21.331-0.001c0.037-24.256,0-48.512,0.018-72.766  C281.157,193.281,281.412,190.473,280.748,187.758z"/>
<circle cx="151.966" cy="115.343" r="21.875"/>
</svg>